{
  "accessors": [
    {
      "bufferView": 2,
      "componentType": 5126,
      "count": 4844,
      "max": [
        1.427272081375122,
        13.919967651367188,
        9.906744003295898
      ],
      "min": [
        -1.427272081375122,
        -13.919967651367188,
        -9.906744956970215
      ],
      "type": "VEC3"
    },
    {
      "bufferView": 2,
      "byteOffset": 58128,
      "componentType": 5126,
      "count": 4844,
      "max": [
        1.0,
        1.0,
        1.0
      ],
      "min": [
        -1.0,
        -1.0,
        -1.0
      ],
      "type": "VEC3"
    },
    {
      "bufferView": 3,
      "componentType": 5126,
      "count": 4844,
      "max": [
        1.0,
        1.0,
        1.0,
        1.0
      ],
      "min": [
        -1.0,
        -1.0,
        -1.0,
        1.0
      ],
      "type": "VEC4"
    },
    {
      "bufferView": 1,
      "componentType": 5126,
      "count": 4844,
      "max": [
        0.9704534411430359,
        0.9970665574073792
      ],
      "min": [
        0.002933526411652565,
        0.002933526411652565
      ],
      "type": "VEC2"
    },
    {
      "bufferView": 1,
      "byteOffset": 38752,
      "componentType": 5126,
      "count": 4844,
      "max": [
        0.9704534411430359,
        0.9970665574073792
      ],
      "min": [
        0.002933526411652565,
        0.002933526411652565
      ],
      "type": "VEC2"
    },
    {
      "bufferView": 1,
      "byteOffset": 77504,
      "componentType": 5126,
      "count": 4844,
      "max": [
        0.9704534411430359,
        0.9970665574073792
      ],
      "min": [
        0.002933526411652565,
        0.002933526411652565
      ],
      "type": "VEC2"
    },
    {
      "bufferView": 0,
      "componentType": 5125,
      "count": 7845,
      "type": "SCALAR"
    },
    {
      "bufferView": 2,
      "byteOffset": 116256,
      "componentType": 5126,
      "count": 2872,
      "max": [
        0.9420043230056763,
        9.026138305664063,
        13.827287673950195
      ],
      "min": [
        -0.9420043230056763,
        -9.026138305664063,
        -13.827287673950195
      ],
      "type": "VEC3"
    },
    {
      "bufferView": 2,
      "byteOffset": 150720,
      "componentType": 5126,
      "count": 2872,
      "max": [
        1.0,
        1.0,
        1.0
      ],
      "min": [
        -1.0,
        -1.0,
        -1.0
      ],
      "type": "VEC3"
    },
    {
      "bufferView": 3,
      "byteOffset": 77504,
      "componentType": 5126,
      "count": 2872,
      "max": [
        1.0,
        1.0,
        1.0,
        1.0
      ],
      "min": [
        -1.0,
        -1.0,
        -1.0,
        1.0
      ],
      "type": "VEC4"
    },
    {
      "bufferView": 1,
      "byteOffset": 116256,
      "componentType": 5126,
      "count": 2872,
      "max": [
        0.9971446394920349,
        0.9965102672576904
      ],
      "min": [
        0.0028554066084325314,
        0.0028554066084325314
      ],
      "type": "VEC2"
    },
    {
      "bufferView": 1,
      "byteOffset": 139232,
      "componentType": 5126,
      "count": 2872,
      "max": [
        0.9971446394920349,
        0.9965102672576904
      ],
      "min": [
        0.0028554066084325314,
        0.0028554066084325314
      ],
      "type": "VEC2"
    },
    {
      "bufferView": 1,
      "byteOffset": 162208,
      "componentType": 5126,
      "count": 2872,
      "max": [
        0.9971446394920349,
        0.9965102672576904
      ],
      "min": [
        0.0028554066084325314,
        0.0028554066084325314
      ],
      "type": "VEC2"
    },
    {
      "bufferView": 0,
      "byteOffset": 31380,
      "componentType": 5125,
      "count": 5790,
      "type": "SCALAR"
    },
    {
      "bufferView": 2,
      "byteOffset": 185184,
      "componentType": 5126,
      "count": 2959,
      "max": [
        4.813213348388672,
        8.364662170410156,
        10.672229766845703
      ],
      "min": [
        -4.813213348388672,
        -8.36465835571289,
        -10.672229766845703
      ],
      "type": "VEC3"
    },
    {
      "bufferView": 2,
      "byteOffset": 220692,
      "componentType": 5126,
      "count": 2959,
      "max": [
        1.0,
        1.0,
        1.0
      ],
      "min": [
        -1.0,
        -1.0,
        -1.0
      ],
      "type": "VEC3"
    },
    {
      "bufferView": 3,
      "byteOffset": 123456,
      "componentType": 5126,
      "count": 2959,
      "max": [
        1.0,
        1.0,
        1.0,
        1.0
      ],
      "min": [
        -1.0,
        -1.0,
        -1.0,
        1.0
      ],
      "type": "VEC4"
    },
    {
      "bufferView": 1,
      "byteOffset": 185184,
      "componentType": 5126,
      "count": 2959,
      "max": [
        0.9976161122322083,
        0.9972270131111145
      ],
      "min": [
        0.0023838093038648367,
        0.0023838093038648367
      ],
      "type": "VEC2"
    },
    {
      "bufferView": 1,
      "byteOffset": 208856,
      "componentType": 5126,
      "count": 2959,
      "max": [
        0.9976161122322083,
        0.9972270131111145
      ],
      "min": [
        0.0023838093038648367,
        0.0023838093038648367
      ],
      "type": "VEC2"
    },
    {
      "bufferView": 1,
      "byteOffset": 232528,
      "componentType": 5126,
      "count": 2959,
      "max": [
        0.9976161122322083,
        0.9972270131111145
      ],
      "min": [
        0.0023838093038648367,
        0.0023838093038648367
      ],
      "type": "VEC2"
    },
    {
      "bufferView": 0,
      "byteOffset": 54540,
      "componentType": 5125,
      "count": 7164,
      "type": "SCALAR"
    },
    {
      "bufferView": 2,
      "byteOffset": 256200,
      "componentType": 5126,
      "count": 2294,
      "max": [
        1.861325740814209,
        8.845856666564941,
        12.788434028625488
      ],
      "min": [
        -1.861325740814209,
        -8.845856666564941,
        -12.788434028625488
      ],
      "type": "VEC3"
    },
    {
      "bufferView": 2,
      "byteOffset": 283728,
      "componentType": 5126,
      "count": 2294,
      "max": [
        0.003254545386880636,
        1.0,
        1.0
      ],
      "min": [
        -1.0,
        -1.0,
        -1.0
      ],
      "type": "VEC3"
    },
    {
      "bufferView": 3,
      "byteOffset": 170800,
      "componentType": 5126,
      "count": 2294,
      "max": [
        1.0,
        1.0,
        1.0,
        1.0
      ],
      "min": [
        -1.0,
        -1.0,
        -1.0,
        1.0
      ],
      "type": "VEC4"
    },
    {
      "bufferView": 1,
      "byteOffset": 256200,
      "componentType": 5126,
      "count": 2294,
      "max": [
        0.9919501543045044,
        0.9946118593215942
      ],
      "min": [
        0.005388178396970034,
        0.005388178396970034
      ],
      "type": "VEC2"
    },
    {
      "bufferView": 1,
      "byteOffset": 274552,
      "componentType": 5126,
      "count": 2294,
      "max": [
        0.9919501543045044,
        0.9946118593215942
      ],
      "min": [
        0.005388178396970034,
        0.005388178396970034
      ],
      "type": "VEC2"
    },
    {
      "bufferView": 1,
      "byteOffset": 292904,
      "componentType": 5126,
      "count": 2294,
      "max": [
        0.9919501543045044,
        0.9946118593215942
      ],
      "min": [
        0.005388178396970034,
        0.005388178396970034
      ],
      "type": "VEC2"
    },
    {
      "bufferView": 0,
      "byteOffset": 83196,
      "componentType": 5125,
      "count": 4164,
      "type": "SCALAR"
    }
  ],
  "asset": {
    "extras": {
      "author": "Zambur (https://sketchfab.com/Zambur)",
      "license": "CC-BY-4.0 (http://creativecommons.org/licenses/by/4.0/)",
      "source": "https://sketchfab.com/3d-models/buildings-front-75876ad5f6bf4a30baa71673c303213d",
      "title": "Buildings Front"
    },
    "generator": "Sketchfab-13.74.0",
    "version": "2.0"
  },
  "bufferViews": [
    {
      "buffer": 0,
      "byteLength": 99852,
      "name": "floatBufferViews",
      "target": 34963
    },
    {
      "buffer": 0,
      "byteLength": 311256,
      "byteOffset": 99852,
      "byteStride": 8,
      "name": "floatBufferViews",
      "target": 34962
    },
    {
      "buffer": 0,
      "byteLength": 311256,
      "byteOffset": 411108,
      "byteStride": 12,
      "name": "floatBufferViews",
      "target": 34962
    },
    {
      "buffer": 0,
      "byteLength": 207504,
      "byteOffset": 722364,
      "byteStride": 16,
      "name": "floatBufferViews",
      "target": 34962
    }
  ],
  "buffers": [
    {
      "byteLength": 929868,
      "uri": "scene.bin"
    }
  ],
  "images": [
    {
      "uri": "textures/Building_2_baseColor.jpeg"
    },
    {
      "uri": "textures/Building_2_metallicRoughness.png"
    },
    {
      "uri": "textures/Building_2_normal.png"
    },
    {
      "uri": "textures/Building_1_baseColor.jpeg"
    },
    {
      "uri": "textures/Building_1_metallicRoughness.png"
    },
    {
      "uri": "textures/Building_1_normal.png"
    },
    {
      "uri": "textures/Building_3_baseColor.jpeg"
    },
    {
      "uri": "textures/Building_3_metallicRoughness.png"
    },
    {
      "uri": "textures/Building_3_normal.png"
    },
    {
      "uri": "textures/Buidling_4_baseColor.jpeg"
    },
    {
      "uri": "textures/Buidling_4_metallicRoughness.png"
    },
    {
      "uri": "textures/Buidling_4_normal.png"
    }
  ],
  "materials": [
    {
      "doubleSided": true,
      "name": "Building_2",
      "normalTexture": {
        "index": 2
      },
      "pbrMetallicRoughness": {
        "baseColorTexture": {
          "index": 0
        },
        "metallicRoughnessTexture": {
          "index": 1
        }
      }
    },
    {
      "doubleSided": true,
      "name": "Building_1",
      "normalTexture": {
        "index": 5
      },
      "pbrMetallicRoughness": {
        "baseColorTexture": {
          "index": 3
        },
        "metallicRoughnessTexture": {
          "index": 4
        }
      }
    },
    {
      "doubleSided": true,
      "name": "Building_3",
      "normalTexture": {
        "index": 8
      },
      "pbrMetallicRoughness": {
        "baseColorTexture": {
          "index": 6
        },
        "metallicRoughnessTexture": {
          "index": 7
        }
      }
    },
    {
      "doubleSided": true,
      "name": "Buidling_4",
      "normalTexture": {
        "index": 11
      },
      "pbrMetallicRoughness": {
        "baseColorTexture": {
          "index": 9
        },
        "metallicRoughnessTexture": {
          "index": 10
        }
      }
    }
  ],
  "meshes": [
    {
      "name": "Buidling_2_Building_2_0",
      "primitives": [
        {
          "attributes": {
            "NORMAL": 1,
            "POSITION": 0,
            "TANGENT": 2,
            "TEXCOORD_0": 3,
            "TEXCOORD_1": 4,
            "TEXCOORD_2": 5
          },
          "indices": 6,
          "material": 0,
          "mode": 4
        }
      ]
    },
    {
      "name": "Building_1_Building_1_0",
      "primitives": [
        {
          "attributes": {
            "NORMAL": 8,
            "POSITION": 7,
            "TANGENT": 9,
            "TEXCOORD_0": 10,
            "TEXCOORD_1": 11,
            "TEXCOORD_2": 12
          },
          "indices": 13,
          "material": 1,
          "mode": 4
        }
      ]
    },
    {
      "name": "Buidling_3_Building_3_0",
      "primitives": [
        {
          "attributes": {
            "NORMAL": 15,
            "POSITION": 14,
            "TANGENT": 16,
            "TEXCOORD_0": 17,
            "TEXCOORD_1": 18,
            "TEXCOORD_2": 19
          },
          "indices": 20,
          "material": 2,
          "mode": 4
        }
      ]
    },
    {
      "name": "Building_4_Buidling_4_0",
      "primitives": [
        {
          "attributes": {
            "NORMAL": 22,
            "POSITION": 21,
            "TANGENT": 23,
            "TEXCOORD_0": 24,
            "TEXCOORD_1": 25,
            "TEXCOORD_2": 26
          },
          "indices": 27,
          "material": 3,
          "mode": 4
        }
      ]
    }
  ],
  "nodes": [
    {
      "children": [
        1
      ],
      "matrix": [
        1.0,
        0.0,
        0.0,
        0.0,
        0.0,
        2.220446049250313e-16,
        -1.0,
        0.0,
        0.0,
        1.0,
        2.220446049250313e-16,
        0.0,
        0.0,
        0.0,
        0.0,
        1.0
      ],
      "name": "Sketchfab_model"
    },
    {
      "children": [
        2
      ],
      "matrix": [
        0.009999999776482582,
        0.0,
        0.0,
        0.0,
        0.0,
        0.0,
        0.009999999776482582,
        0.0,
        0.0,
        -0.009999999776482582,
        0.0,
        0.0,
        0.0,
        0.0,
        0.0,
        1.0
      ],
      "name": "6eb59af357924c7088eaec75cc813125.fbx"
    },
    {
      "children": [
        3,
        5,
        7,
        9
      ],
      "name": "RootNode"
    },
    {
      "children": [
        4
      ],
      "matrix": [
        100.0,
        0.0,
        0.0,
        0.0,
        -0.0,
        -1.629206793918314e-05,
        -99.99999999999868,
        0.0,
        0.0,
        99.99999999999868,
        -1.629206793918314e-05,
        0.0,
        -76.32077026367188,
        988.712890625,
        -1377.2349853515625,
        1.0
      ],
      "name": "Buidling_2"
    },
    {
      "mesh": 0,
      "name": "Buidling_2_Building_2_0"
    },
    {
      "children": [
        6
      ],
      "matrix": [
        100.0,
        0.0,
        0.0,
        0.0,
        0.0,
        -1.629206793918314e-05,
        -99.99999999999868,
        0.0,
        0.0,
        99.99999999999868,
        -1.629206793918314e-05,
        0.0,
        1.1920928955078125e-05,
        1382.36865234375,
        -3724.846923828125,
        1.0
      ],
      "name": "Building_1"
    },
    {
      "mesh": 1,
      "name": "Building_1_Building_1_0"
    },
    {
      "children": [
        8
      ],
      "matrix": [
        100.0,
        0.0,
        0.0,
        0.0,
        -0.0,
        -1.629206793918314e-05,
        -99.99999999999868,
        0.0,
        0.0,
        99.99999999999868,
        -1.629206793918314e-05,
        0.0,
        -375.185791015625,
        1065.22412109375,
        923.489013671875,
        1.0
      ],
      "name": "Buidling_3"
    },
    {
      "mesh": 2,
      "name": "Buidling_3_Building_3_0"
    },
    {
      "children": [
        10
      ],
      "matrix": [
        100.0,
        0.0,
        0.0,
        0.0,
        -0.0,
        -1.629206793918314e-05,
        -99.99999999999868,
        0.0,
        0.0,
        99.99999999999868,
        -1.629206793918314e-05,
        0.0,
        -210.99472045898438,
        1276.1624755859375,
        2906.745849609375,
        1.0
      ],
      "name": "Building_4"
    },
    {
      "mesh": 3,
      "name": "Building_4_Buidling_4_0"
    }
  ],
  "samplers": [
    {
      "magFilter": 9729,
      "minFilter": 9987,
      "wrapS": 10497,
      "wrapT": 10497
    }
  ],
  "scene": 0,
  "scenes": [
    {
      "name": "Sketchfab_Scene",
      "nodes": [
        0
      ]
    }
  ],
  "textures": [
    {
      "sampler": 0,
      "source": 0
    },
    {
      "sampler": 0,
      "source": 1
    },
    {
      "sampler": 0,
      "source": 2
    },
    {
      "sampler": 0,
      "source": 3
    },
    {
      "sampler": 0,
      "source": 4
    },
    {
      "sampler": 0,
      "source": 5
    },
    {
      "sampler": 0,
      "source": 6
    },
    {
      "sampler": 0,
      "source": 7
    },
    {
      "sampler": 0,
      "source": 8
    },
    {
      "sampler": 0,
      "source": 9
    },
    {
      "sampler": 0,
      "source": 10
    },
    {
      "sampler": 0,
      "source": 11
    }
  ]
}
