{
  "accessors": [
    {
      "bufferView": 2,
      "componentType": 5126,
      "count": 50,
      "max": [
        0.71875,
        -0.3125,
        1.3125
      ],
      "min": [
        0.46875,
        -0.40625,
        1.125
      ],
      "type": "VEC3"
    },
    {
      "bufferView": 2,
      "byteOffset": 600,
      "componentType": 5126,
      "count": 50,
      "max": [
        0.8944272994995117,
        1.0,
        1.0
      ],
      "min": [
        -1.0,
        -1.0,
        -0.8944272994995117
      ],
      "type": "VEC3"
    },
    {
      "bufferView": 1,
      "componentType": 5126,
      "count": 50,
      "max": [
        0.875,
        1.0
      ],
      "min": [
        0.0,
        0.125
      ],
      "type": "VEC2"
    },
    {
      "bufferView": 0,
      "componentType": 5125,
      "count": 84,
      "type": "SCALAR"
    },
    {
      "bufferView": 2,
      "byteOffset": 1200,
      "componentType": 5126,
      "count": 50,
      "max": [
        0.15625,
        0.0625,
        0.0625
      ],
      "min": [
        -0.09375,
        -0.03125,
        -0.125
      ],
      "type": "VEC3"
    },
    {
      "bufferView": 2,
      "byteOffset": 1800,
      "componentType": 5126,
      "count": 50,
      "max": [
        0.8944272994995117,
        1.0,
        1.0
      ],
      "min": [
        -1.0,
        -1.0,
        -0.8944272994995117
      ],
      "type": "VEC3"
    },
    {
      "bufferView": 1,
      "byteOffset": 400,
      "componentType": 5126,
      "count": 50,
      "max": [
        0.875,
        1.0
      ],
      "min": [
        0.25,
        0.125
      ],
      "type": "VEC2"
    },
    {
      "bufferView": 0,
      "byteOffset": 336,
      "componentType": 5125,
      "count": 84,
      "type": "SCALAR"
    },
    {
      "bufferView": 2,
      "byteOffset": 2400,
      "componentType": 5126,
      "count": 24,
      "max": [
        0.4375,
        0.0,
        0.0
      ],
      "min": [
        -0.4375,
        -0.0625,
        -0.125
      ],
      "type": "VEC3"
    },
    {
      "bufferView": 2,
      "byteOffset": 2688,
      "componentType": 5126,
      "count": 24,
      "max": [
        1.0,
        1.0,
        1.0
      ],
      "min": [
        -1.0,
        -1.0,
        -1.0
      ],
      "type": "VEC3"
    },
    {
      "bufferView": 1,
      "byteOffset": 800,
      "componentType": 5126,
      "count": 24,
      "max": [
        0.5,
        0.90625
      ],
      "min": [
        0.09375,
        0.671875
      ],
      "type": "VEC2"
    },
    {
      "bufferView": 0,
      "byteOffset": 672,
      "componentType": 5125,
      "count": 36,
      "type": "SCALAR"
    },
    {
      "bufferView": 2,
      "byteOffset": 2976,
      "componentType": 5126,
      "count": 24,
      "max": [
        0.53125,
        -0.8187500238418579,
        -0.0625
      ],
      "min": [
        -0.53125,
        -0.9437500238418579,
        -0.1875
      ],
      "type": "VEC3"
    },
    {
      "bufferView": 2,
      "byteOffset": 3264,
      "componentType": 5126,
      "count": 24,
      "max": [
        0.8944272994995117,
        1.0,
        1.0
      ],
      "min": [
        -0.8944272994995117,
        -1.0,
        -1.0
      ],
      "type": "VEC3"
    },
    {
      "bufferView": 1,
      "byteOffset": 992,
      "componentType": 5126,
      "count": 24,
      "max": [
        0.515625,
        1.0
      ],
      "min": [
        0.0,
        0.65625
      ],
      "type": "VEC2"
    },
    {
      "bufferView": 0,
      "byteOffset": 816,
      "componentType": 5125,
      "count": 36,
      "type": "SCALAR"
    },
    {
      "bufferView": 2,
      "byteOffset": 3552,
      "componentType": 5126,
      "count": 24,
      "max": [
        0.53125,
        -0.8187500238418579,
        0.53125
      ],
      "min": [
        -0.53125,
        -0.9437500238418579,
        0.375
      ],
      "type": "VEC3"
    },
    {
      "bufferView": 2,
      "byteOffset": 3840,
      "componentType": 5126,
      "count": 24,
      "max": [
        0.9284766912460327,
        1.0,
        1.0
      ],
      "min": [
        -0.9284766912460327,
        -1.0,
        -1.0
      ],
      "type": "VEC3"
    },
    {
      "bufferView": 1,
      "byteOffset": 1184,
      "componentType": 5126,
      "count": 24,
      "max": [
        0.515625,
        1.0
      ],
      "min": [
        0.0,
        0.671875
      ],
      "type": "VEC2"
    },
    {
      "bufferView": 0,
      "byteOffset": 960,
      "componentType": 5125,
      "count": 36,
      "type": "SCALAR"
    },
    {
      "bufferView": 2,
      "byteOffset": 4128,
      "componentType": 5126,
      "count": 338,
      "max": [
        0.5,
        1.1875,
        1.1875
      ],
      "min": [
        -0.5,
        0.25,
        -0.875
      ],
      "type": "VEC3"
    },
    {
      "bufferView": 2,
      "byteOffset": 8184,
      "componentType": 5126,
      "count": 338,
      "max": [
        1.0,
        1.0,
        1.0
      ],
      "min": [
        -1.0,
        -1.0,
        -1.0
      ],
      "type": "VEC3"
    },
    {
      "bufferView": 1,
      "byteOffset": 1376,
      "componentType": 5126,
      "count": 338,
      "max": [
        0.921875,
        1.0
      ],
      "min": [
        0.0,
        0.078125
      ],
      "type": "VEC2"
    },
    {
      "bufferView": 0,
      "byteOffset": 1104,
      "componentType": 5125,
      "count": 684,
      "type": "SCALAR"
    },
    {
      "bufferView": 2,
      "byteOffset": 12240,
      "componentType": 5126,
      "count": 144,
      "max": [
        0.125,
        0.25,
        0.25
      ],
      "min": [
        -0.125,
        -0.25,
        -0.25
      ],
      "type": "VEC3"
    },
    {
      "bufferView": 2,
      "byteOffset": 13968,
      "componentType": 5126,
      "count": 144,
      "max": [
        1.0,
        1.0,
        1.0
      ],
      "min": [
        -1.0,
        -1.0,
        -1.0
      ],
      "type": "VEC3"
    },
    {
      "bufferView": 1,
      "byteOffset": 4080,
      "componentType": 5126,
      "count": 144,
      "max": [
        0.640625,
        1.0
      ],
      "min": [
        0.078125,
        0.375
      ],
      "type": "VEC2"
    },
    {
      "bufferView": 0,
      "byteOffset": 3840,
      "componentType": 5125,
      "count": 192,
      "type": "SCALAR"
    },
    {
      "bufferView": 2,
      "byteOffset": 15696,
      "componentType": 5126,
      "count": 144,
      "max": [
        0.125,
        0.25,
        0.25
      ],
      "min": [
        -0.125,
        -0.25,
        -0.25
      ],
      "type": "VEC3"
    },
    {
      "bufferView": 2,
      "byteOffset": 17424,
      "componentType": 5126,
      "count": 144,
      "max": [
        1.0,
        1.0,
        1.0
      ],
      "min": [
        -1.0,
        -1.0,
        -1.0
      ],
      "type": "VEC3"
    },
    {
      "bufferView": 1,
      "byteOffset": 5232,
      "componentType": 5126,
      "count": 144,
      "max": [
        0.65625,
        1.0
      ],
      "min": [
        0.0,
        0.34375
      ],
      "type": "VEC2"
    },
    {
      "bufferView": 0,
      "byteOffset": 4608,
      "componentType": 5125,
      "count": 192,
      "type": "SCALAR"
    },
    {
      "bufferView": 2,
      "byteOffset": 19152,
      "componentType": 5126,
      "count": 144,
      "max": [
        0.125,
        0.25,
        0.25
      ],
      "min": [
        -0.125,
        -0.25,
        -0.25
      ],
      "type": "VEC3"
    },
    {
      "bufferView": 2,
      "byteOffset": 20880,
      "componentType": 5126,
      "count": 144,
      "max": [
        1.0,
        1.0,
        1.0
      ],
      "min": [
        -1.0,
        -1.0,
        -1.0
      ],
      "type": "VEC3"
    },
    {
      "bufferView": 1,
      "byteOffset": 6384,
      "componentType": 5126,
      "count": 144,
      "max": [
        0.609375,
        1.0
      ],
      "min": [
        0.0,
        0.390625
      ],
      "type": "VEC2"
    },
    {
      "bufferView": 0,
      "byteOffset": 5376,
      "componentType": 5125,
      "count": 192,
      "type": "SCALAR"
    },
    {
      "bufferView": 2,
      "byteOffset": 22608,
      "componentType": 5126,
      "count": 144,
      "max": [
        0.125,
        0.25,
        0.25
      ],
      "min": [
        -0.125,
        -0.25,
        -0.25
      ],
      "type": "VEC3"
    },
    {
      "bufferView": 2,
      "byteOffset": 24336,
      "componentType": 5126,
      "count": 144,
      "max": [
        1.0,
        1.0,
        1.0
      ],
      "min": [
        -1.0,
        -1.0,
        -1.0
      ],
      "type": "VEC3"
    },
    {
      "bufferView": 1,
      "byteOffset": 7536,
      "componentType": 5126,
      "count": 144,
      "max": [
        0.609375,
        1.0
      ],
      "min": [
        0.0,
        0.375
      ],
      "type": "VEC2"
    },
    {
      "bufferView": 0,
      "byteOffset": 6144,
      "componentType": 5125,
      "count": 192,
      "type": "SCALAR"
    }
  ],
  "asset": {
    "extras": {
      "author": "RodWay (https://sketchfab.com/rodway)",
      "license": "CC-BY-4.0 (http://creativecommons.org/licenses/by/4.0/)",
      "source": "https://sketchfab.com/3d-models/van-10557fe2671445b9af1c2e435ee237ff",
      "title": "Van"
    },
    "generator": "Sketchfab-15.27.0",
    "version": "2.0"
  },
  "bufferViews": [
    {
      "buffer": 0,
      "byteLength": 6912,
      "name": "floatBufferViews",
      "target": 34963
    },
    {
      "buffer": 0,
      "byteLength": 8688,
      "byteOffset": 6912,
      "byteStride": 8,
      "name": "floatBufferViews",
      "target": 34962
    },
    {
      "buffer": 0,
      "byteLength": 26064,
      "byteOffset": 15600,
      "byteStride": 12,
      "name": "floatBufferViews",
      "target": 34962
    }
  ],
  "buffers": [
    {
      "byteLength": 41664,
      "uri": "scene.bin"
    }
  ],
  "extensionsUsed": [
    "KHR_materials_specular"
  ],
  "images": [
    {
      "uri": "textures/material_0_baseColor.png"
    },
    {
      "uri": "textures/material_1_baseColor.png"
    },
    {
      "uri": "textures/material_2_baseColor.png"
    },
    {
      "uri": "textures/material_3_baseColor.png"
    }
  ],
  "materials": [
    {
      "alphaCutoff": 0.05,
      "alphaMode": "MASK",
      "doubleSided": true,
      "extensions": {
        "KHR_materials_specular": {
          "specularColorFactor": [
            1.0,
            1.0,
            1.0
          ],
          "specularFactor": 0.25
        }
      },
      "name": "material_0",
      "pbrMetallicRoughness": {
        "baseColorTexture": {
          "index": 0
        },
        "metallicFactor": 0.3,
        "roughnessFactor": 0.5
      }
    },
    {
      "alphaCutoff": 0.05,
      "alphaMode": "MASK",
      "doubleSided": true,
      "extensions": {
        "KHR_materials_specular": {
          "specularColorFactor": [
            1.0,
            1.0,
            1.0
          ],
          "specularFactor": 0.25
        }
      },
      "name": "material_1",
      "pbrMetallicRoughness": {
        "baseColorTexture": {
          "index": 1
        },
        "metallicFactor": 0.3,
        "roughnessFactor": 0.44999999999999996
      }
    },
    {
      "alphaCutoff": 0.05,
      "alphaMode": "MASK",
      "doubleSided": true,
      "extensions": {
        "KHR_materials_specular": {
          "specularColorFactor": [
            1.0,
            1.0,
            1.0
          ],
          "specularFactor": 0.25
        }
      },
      "name": "material_2",
      "pbrMetallicRoughness": {
        "baseColorTexture": {
          "index": 2
        },
        "metallicFactor": 0.3,
        "roughnessFactor": 0.550474820494691
      }
    },
    {
      "alphaCutoff": 0.05,
      "alphaMode": "MASK",
      "doubleSided": true,
      "name": "material_3",
      "pbrMetallicRoughness": {
        "baseColorFactor": [
          0.65,
          0.65,
          0.65,
          1.0
        ],
        "baseColorTexture": {
          "index": 3
        },
        "metallicFactor": 0.0
      }
    }
  ],
  "meshes": [
    {
      "name": "Object_0",
      "primitives": [
        {
          "attributes": {
            "NORMAL": 1,
            "POSITION": 0,
            "TEXCOORD_0": 2
          },
          "indices": 3,
          "material": 0,
          "mode": 4
        }
      ]
    },
    {
      "name": "Object_1",
      "primitives": [
        {
          "attributes": {
            "NORMAL": 5,
            "POSITION": 4,
            "TEXCOORD_0": 6
          },
          "indices": 7,
          "material": 0,
          "mode": 4
        }
      ]
    },
    {
      "name": "Object_2",
      "primitives": [
        {
          "attributes": {
            "NORMAL": 9,
            "POSITION": 8,
            "TEXCOORD_0": 10
          },
          "indices": 11,
          "material": 1,
          "mode": 4
        }
      ]
    },
    {
      "name": "Object_3",
      "primitives": [
        {
          "attributes": {
            "NORMAL": 13,
            "POSITION": 12,
            "TEXCOORD_0": 14
          },
          "indices": 15,
          "material": 1,
          "mode": 4
        }
      ]
    },
    {
      "name": "Object_4",
      "primitives": [
        {
          "attributes": {
            "NORMAL": 17,
            "POSITION": 16,
            "TEXCOORD_0": 18
          },
          "indices": 19,
          "material": 1,
          "mode": 4
        }
      ]
    },
    {
      "name": "Object_5",
      "primitives": [
        {
          "attributes": {
            "NORMAL": 21,
            "POSITION": 20,
            "TEXCOORD_0": 22
          },
          "indices": 23,
          "material": 2,
          "mode": 4
        }
      ]
    },
    {
      "name": "Object_6",
      "primitives": [
        {
          "attributes": {
            "NORMAL": 25,
            "POSITION": 24,
            "TEXCOORD_0": 26
          },
          "indices": 27,
          "material": 3,
          "mode": 4
        }
      ]
    },
    {
      "name": "Object_7",
      "primitives": [
        {
          "attributes": {
            "NORMAL": 29,
            "POSITION": 28,
            "TEXCOORD_0": 30
          },
          "indices": 31,
          "material": 3,
          "mode": 4
        }
      ]
    },
    {
      "name": "Object_8",
      "primitives": [
        {
          "attributes": {
            "NORMAL": 33,
            "POSITION": 32,
            "TEXCOORD_0": 34
          },
          "indices": 35,
          "material": 3,
          "mode": 4
        }
      ]
    },
    {
      "name": "Object_9",
      "primitives": [
        {
          "attributes": {
            "NORMAL": 37,
            "POSITION": 36,
            "TEXCOORD_0": 38
          },
          "indices": 39,
          "material": 3,
          "mode": 4
        }
      ]
    }
  ],
  "nodes": [
    {
      "children": [
        1
      ],
      "matrix": [
        1.0,
        0.0,
        0.0,
        0.0,
        0.0,
        2.220446049250313e-16,
        -1.0,
        0.0,
        0.0,
        1.0,
        2.220446049250313e-16,
        0.0,
        0.0,
        0.0,
        0.0,
        1.0
      ],
      "name": "Sketchfab_model"
    },
    {
      "children": [
        2
      ],
      "name": "root"
    },
    {
      "children": [
        3
      ],
      "matrix": [
        1.0,
        0.0,
        0.0,
        0.0,
        0.0,
        2.220446049250313e-16,
        1.0,
        0.0,
        0.0,
        -1.0,
        2.220446049250313e-16,
        0.0,
        0.0,
        0.0,
        0.0,
        1.0
      ],
      "name": "GLTF_SceneRootNode"
    },
    {
      "children": [
        4,
        20
      ],
      "name": "_19"
    },
    {
      "children": [
        5
      ],
      "name": "root_9"
    },
    {
      "children": [
        6,
        11,
        18
      ],
      "name": "body_8"
    },
    {
      "children": [
        7,
        9
      ],
      "matrix": [
        1.0,
        0.0,
        0.0,
        0.0,
        0.0,
        1.0,
        0.0,
        0.0,
        0.0,
        0.0,
        1.0,
        0.0,
        0.0,
        1.1875,
        -0.6875,
        1.0
      ],
      "name": "side_mirrors_2"
    },
    {
      "children": [
        8
      ],
      "name": "cube_0"
    },
    {
      "mesh": 0,
      "name": "Object_8"
    },
    {
      "children": [
        10
      ],
      "matrix": [
        -1.0,
        -1.2246468525851679e-16,
        3.366398247079636e-16,
        0.0,
        1.2246468525851679e-16,
        -1.0,
        -4.122648921189655e-32,
        0.0,
        3.366398247079636e-16,
        9.664464739016916e-40,
        1.0,
        0.0,
        -0.5625,
        -0.375,
        1.25,
        1.0
      ],
      "name": "cube_1"
    },
    {
      "mesh": 1,
      "name": "Object_10"
    },
    {
      "children": [
        12,
        14,
        16
      ],
      "matrix": [
        1.0,
        0.0,
        0.0,
        0.0,
        0.0,
        1.0,
        0.0,
        0.0,
        0.0,
        0.0,
        1.0,
        0.0,
        0.0,
        1.1875,
        -0.6875,
        1.0
      ],
      "name": "other_6"
    },
    {
      "children": [
        13
      ],
      "matrix": [
        1.0,
        0.0,
        0.0,
        0.0,
        0.0,
        0.9396926174059803,
        0.34202015261194463,
        0.0,
        0.0,
        -0.34202015261194463,
        0.9396926174059803,
        0.0,
        0.0,
        0.0,
        0.0,
        1.0
      ],
      "name": "cube_3"
    },
    {
      "mesh": 2,
      "name": "Object_13"
    },
    {
      "children": [
        15
      ],
      "name": "cube_4"
    },
    {
      "mesh": 3,
      "name": "Object_15"
    },
    {
      "children": [
        17
      ],
      "matrix": [
        1.0,
        0.0,
        0.0,
        0.0,
        0.0,
        1.0,
        0.0,
        0.0,
        0.0,
        0.0,
        1.0,
        0.0,
        0.0,
        0.0,
        1.375,
        1.0
      ],
      "name": "cube_5"
    },
    {
      "mesh": 4,
      "name": "Object_17"
    },
    {
      "children": [
        19
      ],
      "name": "cube_7"
    },
    {
      "mesh": 5,
      "name": "Object_19"
    },
    {
      "children": [
        21,
        24,
        27,
        30
      ],
      "name": "wheels_18"
    },
    {
      "children": [
        22
      ],
      "matrix": [
        1.0,
        0.0,
        0.0,
        0.0,
        0.0,
        1.0,
        0.0,
        0.0,
        0.0,
        0.0,
        1.0,
        0.0,
        0.4375,
        0.25,
        0.75,
        1.0
      ],
      "name": "left_front_11"
    },
    {
      "children": [
        23
      ],
      "name": "cylinder_10"
    },
    {
      "mesh": 6,
      "name": "Object_23"
    },
    {
      "children": [
        25
      ],
      "matrix": [
        1.0,
        0.0,
        0.0,
        0.0,
        0.0,
        1.0,
        0.0,
        0.0,
        0.0,
        0.0,
        1.0,
        0.0,
        -0.4375,
        0.25,
        0.75,
        1.0
      ],
      "name": "right_front_13"
    },
    {
      "children": [
        26
      ],
      "name": "cylinder_12"
    },
    {
      "mesh": 7,
      "name": "Object_26"
    },
    {
      "children": [
        28
      ],
      "matrix": [
        1.0,
        0.0,
        0.0,
        0.0,
        0.0,
        1.0,
        0.0,
        0.0,
        0.0,
        0.0,
        1.0,
        0.0,
        0.4375,
        0.25,
        -0.4375,
        1.0
      ],
      "name": "left_back_15"
    },
    {
      "children": [
        29
      ],
      "name": "cylinder_14"
    },
    {
      "mesh": 8,
      "name": "Object_29"
    },
    {
      "children": [
        31
      ],
      "matrix": [
        1.0,
        0.0,
        0.0,
        0.0,
        0.0,
        1.0,
        0.0,
        0.0,
        0.0,
        0.0,
        1.0,
        0.0,
        -0.4375,
        0.25,
        -0.4375,
        1.0
      ],
      "name": "right_back_17"
    },
    {
      "children": [
        32
      ],
      "name": "cylinder_16"
    },
    {
      "mesh": 9,
      "name": "Object_32"
    }
  ],
  "samplers": [
    {
      "magFilter": 9728,
      "minFilter": 9728,
      "wrapS": 33071,
      "wrapT": 33071
    }
  ],
  "scene": 0,
  "scenes": [
    {
      "name": "Sketchfab_Scene",
      "nodes": [
        0
      ]
    }
  ],
  "textures": [
    {
      "sampler": 0,
      "source": 0
    },
    {
      "sampler": 0,
      "source": 1
    },
    {
      "sampler": 0,
      "source": 2
    },
    {
      "sampler": 0,
      "source": 3
    }
  ]
}
